<?xml version="1.0" encoding="UTF-8"?><svg id="uuid-a0cd7401-bfce-44f8-a49e-a8fa4367d605" xmlns="http://www.w3.org/2000/svg" viewBox="0 0 457.74 329.15"><g id="uuid-8a26f828-410c-4397-b6c8-b848da7926ea"><path d="M28.12,53.59l18.29-4.82s-10.31,92.39-11.31,98.6-7.04,27.27-32.76,31.15c.22-3.77,1.5-15.35,1.5-15.35,0,0,11.64-4.21,13.3-13.3,1.66-9.09,10.97-96.27,10.97-96.27Z" style="fill:#fff; fill-rule:evenodd;"/><path d="M81.32,40.06l-13.63,3.44-23.86,73.85,14.88-3.91,5.87-17.62,21.17-5.43,5.76,14.52,13.97-3.55-24.16-61.3Zm-11.64,39.57l5.43-16.29,5.32,13.52-10.75,2.77Z" style="fill:#fff; fill-rule:evenodd;"/><polygon points="102.94 112.45 157.86 98.37 130.37 157.26 156.89 150.48 154.98 166.73 101.39 180.34 128.88 122.17 101.07 129.24 102.94 112.45" style="fill:#fff; fill-rule:evenodd;"/><polygon points="112.08 32.03 167.01 17.95 139.52 76.84 166.04 70.06 164.13 86.31 110.53 99.92 138.02 41.75 110.21 48.82 112.08 32.03" style="fill:#fff; fill-rule:evenodd;"/><polygon points="171.94 16.95 226.86 2.87 199.37 61.76 225.89 54.99 223.98 71.24 170.39 84.84 197.88 26.68 170.07 33.74 171.94 16.95" style="fill:#fff; fill-rule:evenodd;"/><polygon points="244.14 76.41 260.81 72.21 254.83 125.5 275.94 120.09 275.03 136.14 236.2 146.03 244.14 76.41" style="fill:#fff; fill-rule:evenodd;"/><path d="M332.11,69.99c-2.83-8.15-10.14-13.05-19.01-11-6.29,1.45-22.95,5.74-22.95,5.74l-7.9,69.58s17.62-4.66,29.93-9.81c12.3-5.15,17.1-18.21,19.43-27.68,2.33-9.48,3.33-18.68,.5-26.82Zm-20.17,36.72c-4.49,5.9-12.05,7.32-12.14,7.32,.67-5.87,4.16-36.41,4.16-36.41,0,0,6.19-3.33,10.23-1.91,2.83,1,3.91,5.32,3.91,10.64,0,7.65-1.79,14.63-6.15,20.37Z" style="fill:#fff; fill-rule:evenodd;"/><polygon points="344.25 50.93 385.43 40.45 383.52 57.41 358.99 63.51 357.91 73.04 377.78 67.94 375.95 83.35 356.19 88.32 354.84 99.98 379.36 93.74 377.45 110.03 336.38 120.43 344.25 50.93" style="fill:#fff; fill-rule:evenodd;"/><path d="M49.6,11.85c-1.11-3.21-3.99-5.14-7.49-4.33-2.48,.57-9.04,2.26-9.04,2.26l-3.11,27.4s6.94-1.83,11.78-3.86c4.84-2.03,6.73-7.17,7.65-10.9,.92-3.73,1.31-7.35,.2-10.56Zm-7.94,14.46c-1.77,2.32-4.75,2.88-4.78,2.88,.26-2.31,1.64-14.34,1.64-14.34,0,0,2.44-1.31,4.03-.75,1.11,.39,1.54,2.1,1.54,4.19,0,3.01-.7,5.76-2.42,8.02Z" style="fill:#fff; fill-rule:evenodd;"/><polygon points="55.27 4.12 71.48 0 70.73 6.68 61.07 9.08 60.65 12.83 68.47 10.82 67.75 16.89 59.97 18.85 59.44 23.44 69.1 20.98 68.34 27.4 52.17 31.49 55.27 4.12" style="fill:#fff; fill-rule:evenodd;"/><path d="M406.05,75.76l8.37-2.16,19.68,22,15.85-4.1s-15.96-19.7-20.2-24.94c23.86-7.98,20.87-46.89-12.94-37.47-9.23,2.57-22.72,9.09-22.72,9.09l-7.98,69.72,16.96-4.43,2.99-27.71Zm1.77-15.41l1.77-15.74s6.57-2.6,10.59-3.74c12.14-3.46,17.68,10.39,2.74,15.71-4.36,1.55-15.1,3.77-15.1,3.77Z" style="fill:#fff; fill-rule:evenodd;"/><path d="M441.03,309.45l-8.9,8.9v-35.08l-13.8-7.15-11.14,4.66v21.45l-4.32-4.32h-8.65v-6.98h-9.14v7.07h-14.55s-4.57,5.07-9.56,9.56c76.89-133.35-52.14-164.38-98.39-125.66,.17-6.11,.21-13.55-1.75-17-1.88-3.32-4.24-3.87-7.02-2.91s-7.19,5.65-6.61,12.89c-9.28-6.03-20.19-39.1-20.83-41.9-.42-1.83,1.33-13.47,1.19-20.45-.44-23.06-27.93-36.8-51.43-20.4-17.04,11.9-24.83,31.92-18.1,49.91,5.4,14.43,13.72,21.86,38.82,16.71,3.99,.46,8.19,4.16,8.9,6.19-9.01,2.67-24.86,22.18,6.62,44.57-19.29,11.42-9.64,24.72-9.64,24.72,0,0-1.72,4-2.55,7.21-.88,3.4-2.08,6.76-2.08,6.76,0,0-28.89-15.33-47.51-20.66-54.99-15.75-75.28,32.63-35.42,48.14l-.46,5.24s-.91-.12-4.12-.75-6.9,.91-8.98,4.12c-2.08,3.2-2.04,11.31,.5,16.5,2.54,5.2,4.74,9.62,4.74,9.62h-8.54l-7.46,7.46v-22.84h-16.19l-5.18,5.18v9.07h-10.32l-7.5,7.9v-13.41h1.6l-10.66-28.16-10.61,28.17h1.56v3.93h-7.48v-5.86h2v-2.41H14.63v2.39h2v5.99l-2.37-.04-14.26,14.09v7.26l457.74,.06v-19.7h-16.71Zm-74.56-45.69c-11.97-8.98-25.27-18.62-40.79-27.49,8.65-15.3,7.09-33.92-11.53-43.67-18.62-9.75-41.24-1.77-47.22,5.99-2-3.77-5.54-7.09-5.54-7.09,58.19-45.11,136.34,10.75,105.08,72.27Zm-48.55-33.25c-6.76-4.43-19.62-11.53-33.25-12.3-4.88-4.1-8.87-8.65-11.42-13.3,6.54-9.42,21.06-14.47,37.8-2.99,15.24,10.45,9.98,21.84,6.87,28.6Zm-66.4-58.75c.78-1.66,3.44-4.43,4.66-1.22,1.22,3.21,.67,12.86,.11,14.08,0,0-4.77-2-4.77-4.77s-.78-6.43,0-8.09Zm4.2,24.22c-7.65-4.21-35.8-36.47-47-43.67,4.77-4.21,7.54-6.65,9.64-10.64,4.1,11.64,22.17,37.24,37.36,54.32Zm-11.18-1.27c-1.88,2.88-4.43,6.87-5.1,11.75-3.21-3.1-5.99-5.32-13.75-13.74s.44-14.96,7.87-7.76c0,0,4.88,5.1,10.97,9.75Zm-70.63-52.93c-8.81-9.64-3.82-24.77,3.33-32.59,8.38-9.16,19.25-11.44,28.76-6.32,6.48,3.49,13.58,18.07,2,32.42-9.71,12.03-24.88,16.55-34.09,6.48Zm39.03,27.14c3.66,1.79,7.19,3.62,7.19,3.62,0,0-14.71,2.41-8.48,16.13,2.49,5.49,14.59,16.47,20.12,21.12,7.32,6.15,3.99,8.15-2.83,2.33-5.04-4.3-16.46-14.63-16.46-14.63-8.87-8.04-16.25-19.62,.46-28.56Zm-37.7,77.11c22.61,10.64,21.78,13.97,21.78,13.97,0,0-8.76,.11-19.79,3.66-9.81,3.16-18.62,7.32-18.62,7.32,0,0,1.66-5.15,.5-17.46-1.02-10.81-7.48-16.46-7.48-16.46,0,0,5.3,.36,23.61,8.98Zm-69.25,6.48c.5-14.3,11.97-18.29,20.29-18.95,10.32-.83,17.27,6.24,21.12,15.3,4.24,9.98,.67,26.6,.67,26.6l-21.95,11.72,.25-9.81s9.81-3.41,13.14-10.97c5.01-11.39-1.58-17.79-3.66-19.7s-5.74-4.24-12.72-2.74c-9.98,2.14-7.4,12.97-7.4,12.97l3.66-.58c0-2.33,.58-5.07,4.91-5.99,4.32-.91,7.98,2.16,7.73,8.81s-7.9,9.14-10.56,9.48c-2.66,.33-15.96-1.83-15.46-16.13Zm19.26,63.07c-9.09-6.54-14.19-15.41-14.19-15.41-4.77-7.65-7.09-21.73,9.53-7.98,16.63,13.75,16.63,20.29,16.85,22.39,.22,2.11-3.1,7.54-12.19,1Zm9.59-23.17s44.56-23.78,61.19-23.44c.17,6.82,1.66,17.13,3.16,21.95-11.14,1-42.4,11.31-54.2,19.95-2.16-7.98-4.66-13.14-10.14-18.46Zm55.37,27.1c-3.66,.17-40.57,.17-40.57,.17,6.65-7.98,44.56-18.79,52.04-19.45,.83,3.33,1,4.32,1.66,5.49,0,0-10.64,6.82-13.14,13.8Zm49.88,.33l-38.57-.5c.67-3.33,8.48-9.98,12.64-10.31,2.49-.2,25.94,0,25.94,0v10.81Zm3.66-44.73c-5.82-9.31-8.15-17.79-9.98-17.29-1.83,.5-.83,4.82-.17,7.48,.67,2.66,5.32,29.1,4.49,34.58-7.65-.33-24.28-1-24.28-1-4.32-12.97-6.48-26.27-6.98-35.75-.5-9.48-1.81-30.02,20.29-20.78,9.14,3.82,18.95,10.64,18.95,10.64,0,0-2,12.14-2.33,22.11Zm4.88-35.58s-7.87-4.54-16.07-6.98c-8.2-2.44-13.2-2.83-21.95-2.55-3.88-7.54,2.66-14.41,8.2-14.41,5.43,3.77,27.49,19.62,30.7,21.17-.55,1.33-.89,2.77-.89,2.77Zm.13-16.46c-.22-10.97,10.7-6.71,1.33-12.86-3.3-2.17,.89-5.43,5.99-4.43,5.23,1.02,14.85,4.66,12.41,14.52,0,0-6.1,2.33-11.08,6.87-3.18,2.9-8.51,2.84-8.65-4.1Zm37.13,98.21h-32.92s.89-46.22,2-56.2c1.11-9.98,2-31.04,18.84-35.91s32.81,5.99,32.37,18.18c-.44,12.19-10.42,23.05-22.61,22.39-11.49-.62-14.15-11.64-11.03-17.79,3.37-6.65,15.42-3.99,14.34,1.58-.35,1.83-3.08,2.41-3.08,2.41v3.94s5.64-.67,8.08-3.77c2.44-3.1,6.1-16.63-10.86-15.63s-20.4,20.51-12.3,30.93c8.09,10.42,17.18,6.54,17.18,6.54v43.34Zm54.43-.55c-8.2,.22-45,0-45,0,0,0,1.11-40.13,1.33-44.34,9.81-2.16,23.44-21.28,20.84-31.92h2c5.76,3.33,29.41,17.81,32.03,22.61,5.99,10.97,4.66,30.93-11.2,53.65Z" style="fill:#fff;"/><path d="M296.56,211.29c1.83-.42,4.9-1.08,9.39-.71-.25-1.08-1.08-2.95-1.79-3.87-2.49-1.21-8.63-.61-12.62,1.16s-6.46,4.86-6.42,8.4c5.99-2.99,8.95-4.42,11.43-4.99Z" style="fill:#fff; fill-rule:evenodd;"/></g></svg>